<svg width="320" height="175" viewBox="0 0 320 175" fill="none" xmlns="http://www.w3.org/2000/svg">
<path d="M172.169 -2.00003C172.169 -2.00003 157.592 18.6282 146.669 30.5C136.004 42.0901 123.169 55.5 123.169 55.5M318.669 174C318.669 174 311.936 152.675 304.669 140.5C298.182 129.633 294.319 123.188 284.669 115C268.169 101 257.761 96.329 238.669 88C222.141 80.7898 202.687 73.0298 178.669 66.5C157.347 60.7034 123.169 55.5 123.169 55.5M123.169 55.5C123.169 55.5 60.6686 45.5 26.1686 55.5C11.8243 59.6578 -1.13518 71.1746 0.668554 86C2.40425 100.266 16.6386 102.5 29.6686 102.5C49.6686 102.5 59.9271 99.9272 76.1685 93.5C95.862 85.7067 123.169 55.5 123.169 55.5Z" stroke="#801122"/>
</svg>
